<svg width="54" height="56" viewBox="0 0 54 56" fill="none" xmlns="http://www.w3.org/2000/svg">
<path d="M47.6645 16.793C47.1595 16.2133 46.5407 15.7484 45.8482 15.4288C45.1557 15.1091 44.405 14.9417 43.6449 14.9375H34.0938V12.5938C34.0938 10.3146 33.2064 8.12871 31.627 6.51707C30.0476 4.90543 27.9055 4.00002 25.6719 4.00002C25.2466 3.99836 24.8294 4.11823 24.4674 4.34605C24.1055 4.57387 23.8132 4.90054 23.6238 5.28908L16.5992 19.625H8.82812C7.81439 19.6302 6.84362 20.0434 6.12679 20.7748C5.40997 21.5063 5.00503 22.4968 5 23.5313V40.7188C5.00503 41.7532 5.40997 42.7438 6.12679 43.4752C6.84362 44.2067 7.81439 44.6199 8.82812 44.625H41.348C42.6529 44.6218 43.9121 44.1346 44.8911 43.2542C45.87 42.3739 46.502 41.1604 46.6691 39.8399L48.966 21.0899C49.0551 20.3206 48.9853 19.5408 48.7612 18.8008C48.537 18.0607 48.1634 17.3768 47.6645 16.793ZM9.59375 24.3125H15.7188V39.9375H9.59375V24.3125ZM44.3914 20.5039L42.0945 39.2539C42.0755 39.4421 41.9886 39.6164 41.8506 39.7427C41.7126 39.8691 41.5334 39.9385 41.348 39.9375H20.3125V22.5156L26.9734 8.92189C27.7118 9.19725 28.3497 9.69677 28.8014 10.3532C29.2531 11.0097 29.4969 11.7916 29.5 12.5938V17.2813C29.5 17.9029 29.742 18.499 30.1727 18.9386C30.6035 19.3781 31.1877 19.625 31.7969 19.625H43.6449C43.7544 19.6248 43.8626 19.6492 43.9619 19.6965C44.0611 19.7437 44.1489 19.8127 44.2191 19.8985C44.2885 19.981 44.3398 20.0777 44.3695 20.1822C44.3993 20.2866 44.4067 20.3963 44.3914 20.5039Z" fill="white"/>
</svg>
